HIERARCHY
ROOT Hips
{
	OFFSET 0.000000 0.000000 0.000000
	CHANNELS 6 Xposition Yposition Zposition Yrotation Xrotation Zrotation
	JOINT Chest
	{
		OFFSET 0.000000 -0.009281 11.569106
		CHANNELS 3 Yrotation Xrotation Zrotation
		JOINT Chest2
		{
			OFFSET -0.000000 0.016865 9.269641
			CHANNELS 3 Yrotation Xrotation Zrotation
			JOINT Chest3
			{
				OFFSET -0.000000 0.000001 8.374491
				CHANNELS 3 Yrotation Xrotation Zrotation
				JOINT Chest4
				{
					OFFSET -0.000000 0.000001 8.374493
					CHANNELS 3 Yrotation Xrotation Zrotation
					JOINT Neck
					{
						OFFSET -0.000000 0.000002 12.152554
						CHANNELS 3 Yrotation Xrotation Zrotation
						JOINT Head
						{
							OFFSET -0.000000 0.040101 7.802319
							CHANNELS 3 Yrotation Xrotation Zrotation
							End Site
							{
								OFFSET -0.000000 0.020947 14.853096
							}
						}
					}
					JOINT RightCollar
					{
						OFFSET 2.894404 0.000001 6.791374
						CHANNELS 3 Yrotation Xrotation Zrotation
						JOINT RightShoulder
						{
							OFFSET 13.574684 0.000001 0.000000
							CHANNELS 3 Yrotation Xrotation Zrotation
							JOINT RightElbow
							{
								OFFSET 23.923903 0.000002 0.000000
								CHANNELS 3 Yrotation Xrotation Zrotation
								JOINT RightWrist
								{
									OFFSET 19.846718 0.012767 0.000000
									CHANNELS 3 Yrotation Xrotation Zrotation
									End Site
									{
										OFFSET 14.973145 0.000001 0.000000
									}
								}
							}
						}
					}
					JOINT LeftCollar
					{
						OFFSET -2.894404 0.000001 6.791374
						CHANNELS 3 Yrotation Xrotation Zrotation
						JOINT LeftShoulder
						{
							OFFSET -13.574684 -0.000001 0.000000
							CHANNELS 3 Yrotation Xrotation Zrotation
							JOINT LeftElbow
							{
								OFFSET -23.923903 -0.000002 0.000000
								CHANNELS 3 Yrotation Xrotation Zrotation
								JOINT LeftWrist
								{
									OFFSET -19.846718 0.012763 0.000000
									CHANNELS 3 Yrotation Xrotation Zrotation
									End Site
									{
										OFFSET -14.973145 -0.000001 0.000000
									}
								}
							}
						}
					}
				}
			}
		}
	}
	JOINT RightHip
	{
		OFFSET 9.469263 0.004643 0.045487
		CHANNELS 3 Yrotation Xrotation Zrotation
		JOINT RightKnee
		{
			OFFSET 0.000000 0.002661 -40.478676
			CHANNELS 3 Yrotation Xrotation Zrotation
			JOINT RightAnkle
			{
				OFFSET 0.000000 0.049106 -35.224068
				CHANNELS 3 Yrotation Xrotation Zrotation
				JOINT RightToe
				{
					OFFSET -0.000001 12.539529 -6.151390
					CHANNELS 3 Yrotation Xrotation Zrotation
					End Site
					{
						OFFSET -0.000001 5.044994 -1.291870
					}
				}
			}
		}
	}
	JOINT LeftHip
	{
		OFFSET -9.469263 0.004641 0.045487
		CHANNELS 3 Yrotation Xrotation Zrotation
		JOINT LeftKnee
		{
			OFFSET 0.000000 0.002661 -40.478676
			CHANNELS 3 Yrotation Xrotation Zrotation
			JOINT LeftAnkle
			{
				OFFSET 0.000000 0.049106 -35.224068
				CHANNELS 3 Yrotation Xrotation Zrotation
				JOINT LeftToe
				{
					OFFSET -0.000001 12.539529 -6.151390
					CHANNELS 3 Yrotation Xrotation Zrotation
					End Site
					{
						OFFSET -0.000001 5.044994 -1.291870
					}
				}
			}
		}
	}
}
MOTION
Frames: 11
Frame Time: 0.016667
10.456238 3.609517 82.954597 -6.292182 -2.942830 -113.377247 -2.158953 -0.493627 3.075829 -0.952105 -0.231724 1.357427 -0.952105 -0.231724 1.357424 -0.713566 -0.175908 1.017707 3.263418 -16.414265 -14.777850 0.904252 5.060270 -26.257812 7.260693 5.382978 1.476485 68.183613 29.251112 68.728300 61.109095 24.124452 78.965579 -56.490948 45.948445 -2.917293 -10.597044 -0.581680 -2.274730 -59.815327 37.131388 -1.641342 2.436973 10.849066 -13.651254 65.772591 10.126372 -57.081967 1.135749 -10.189674 0.951658 0.051869 -1.419932 3.113604 -0.312536 5.191998 -4.562204 0.019925 0.010595 -0.018059 -0.281740 -10.049785 2.365222 0.571292 -1.792477 6.133905 0.065387 5.043556 -0.566904 -0.008239 -0.034752 0.019324 
10.447010 3.613906 82.955276 -6.323761 -2.956539 -113.371441 -2.167079 -0.497239 3.076420 -0.955625 -0.233715 1.357328 -0.955625 -0.233715 1.357328 -0.716203 -0.177410 1.017633 3.283889 -16.457493 -14.769965 0.952185 4.985863 -26.231482 7.274473 5.348662 1.487640 68.343945 29.318027 68.734338 61.100577 24.323361 78.745285 -56.487174 46.116297 -3.005235 -10.590569 -0.597199 -2.236244 -59.884073 37.082480 -1.673263 2.451368 10.878081 -13.546855 65.765528 10.180228 -57.117102 1.131746 -10.184202 0.945875 0.064724 -1.487853 3.125260 -0.330411 5.213940 -4.568030 0.021029 0.012562 -0.017190 -0.280102 -10.045496 2.313864 0.569871 -1.858565 6.164248 0.070917 5.071385 -0.553063 -0.009824 -0.033506 0.018249 
10.437694 3.620927 82.954964 -6.360181 -2.974888 -113.369174 -2.172720 -0.505620 3.086951 -0.957614 -0.237517 1.361597 -0.957614 -0.237517 1.361599 -0.717685 -0.180272 1.020830 3.303916 -16.500325 -14.773095 0.995632 4.910708 -26.225768 7.287891 5.312679 1.478437 68.501313 29.373959 68.761987 61.162575 24.554895 78.543924 -56.434079 46.349353 -3.112228 -10.579732 -0.616099 -2.230052 -59.970932 37.045672 -1.712999 2.463492 10.933777 -13.431587 65.775937 10.210693 -57.146209 1.124348 -10.180411 0.942217 0.083394 -1.563052 3.132627 -0.346128 5.238830 -4.562419 0.019958 0.013952 -0.016771 -0.278028 -10.045455 2.286446 0.566896 -1.928617 6.183706 0.080194 5.103918 -0.547599 -0.012317 -0.034539 0.017126 
10.428123 3.627371 82.954567 -6.396250 -2.995708 -113.371598 -2.179204 -0.516564 3.102580 -0.960466 -0.242336 1.368406 -0.960467 -0.242337 1.368401 -0.719811 -0.183905 1.025922 3.324520 -16.533366 -14.779331 1.037326 4.853220 -26.226668 7.318855 5.313083 1.478239 68.581192 29.415941 68.720166 61.227660 24.806769 78.364236 -56.322891 46.557923 -3.184673 -10.569149 -0.633208 -2.223431 -60.052212 37.004500 -1.762512 2.475785 10.974697 -13.307211 65.765255 10.245183 -57.143897 1.118592 -10.176503 0.928251 0.102333 -1.638476 3.155159 -0.362240 5.263253 -4.560282 0.018784 0.014791 -0.016819 -0.271179 -10.043608 2.297977 0.559985 -2.005450 6.172871 0.089617 5.142297 -0.542402 -0.013455 -0.036507 0.017693 
10.419036 3.633174 82.954262 -6.432784 -3.016323 -113.373142 -2.182938 -0.525055 3.114302 -0.962230 -0.246008 1.373293 -0.962230 -0.246007 1.373296 -0.721123 -0.186668 1.029582 3.334265 -16.548128 -14.778335 1.058165 4.828110 -26.219891 7.339136 5.319972 1.462761 68.669841 29.446513 68.685762 61.249113 25.054322 78.147118 -56.215971 46.767326 -3.280338 -10.575192 -0.636108 -2.213241 -60.098602 36.950712 -1.794974 2.484991 11.003473 -13.148100 65.771696 10.307071 -57.174936 1.112147 -10.173231 0.920693 0.122671 -1.715132 3.176612 -0.380770 5.289608 -4.564077 0.018577 0.015017 -0.017043 -0.261845 -10.042303 2.329139 0.549156 -2.082837 6.149595 0.098414 5.182143 -0.545055 -0.012895 -0.038477 0.018166 
10.409896 3.639222 82.953781 -6.468245 -3.037215 -113.381065 -2.184640 -0.529548 3.133242 -0.963183 -0.248137 1.381864 -0.963183 -0.248139 1.381864 -0.721830 -0.188283 1.036011 3.345946 -16.565647 -14.780533 1.082010 4.797916 -26.218072 7.359400 5.295316 1.462924 68.762130 29.507056 68.668953 61.247700 25.284512 77.923620 -56.049943 47.006448 -3.373567 -10.586370 -0.668253 -2.219036 -60.131722 36.892799 -1.849119 2.500956 11.012072 -12.943061 65.757906 10.423849 -57.247046 1.105808 -10.165227 0.884421 0.140796 -1.798793 3.222865 -0.400167 5.320089 -4.571625 0.020061 0.014146 -0.017104 -0.254173 -10.039645 2.361244 0.541496 -2.162934 6.136859 0.104388 5.224727 -0.560986 -0.012400 -0.040537 0.018344 
10.402028 3.644657 82.953407 -6.505596 -3.056239 -113.378429 -2.188495 -0.537202 3.148998 -0.965313 -0.251556 1.388596 -0.965313 -0.251556 1.388594 -0.723416 -0.190862 1.041048 3.354442 -16.584999 -14.773902 1.103209 4.764848 -26.200841 7.381530 5.264769 1.455662 68.881146 29.558043 68.673092 61.203631 25.492028 77.693736 -55.620587 47.270360 -3.505320 -10.596608 -0.692281 -2.247221 -60.148872 36.841419 -1.884850 2.532059 10.998780 -12.735385 65.747032 10.507707 -57.337553 1.099662 -10.162864 0.862195 0.158024 -1.876564 3.242088 -0.420370 5.348672 -4.582642 0.022770 0.014000 -0.016666 -0.248191 -10.039298 2.358449 0.533001 -2.239651 6.139098 0.112816 5.264668 -0.564208 -0.012335 -0.041811 0.018139 
10.393619 3.650364 82.953140 -6.539079 -3.073134 -113.378661 -2.192477 -0.541610 3.150064 -0.967335 -0.253852 1.388746 -0.967336 -0.253851 1.388746 -0.724928 -0.192588 1.041159 3.349035 -16.597397 -14.749554 1.103434 4.744109 -26.156414 7.406774 5.250477 1.478000 69.008482 29.602648 68.649931 61.226301 25.659376 77.509738 -54.883941 47.547406 -3.648670 -10.612949 -0.687816 -2.231706 -60.144269 36.787891 -1.888368 2.557525 10.953301 -12.549837 65.739287 10.551993 -57.398909 1.095137 -10.148500 0.883294 0.172514 -1.968192 3.239801 -0.440986 5.381152 -4.592499 0.025061 0.015679 -0.016985 -0.241742 -10.036256 2.344398 0.523242 -2.312729 6.160325 0.118532 5.301467 -0.575025 -0.010800 -0.042032 0.018934 
10.385043 3.655826 82.952805 -6.574799 -3.087400 -113.367787 -2.196193 -0.547460 3.143967 -0.969278 -0.256680 1.385325 -0.969276 -0.256680 1.385325 -0.726379 -0.194710 1.038586 3.336732 -16.599330 -14.718718 1.091252 4.742072 -26.103470 7.427318 5.231251 1.499885 69.164244 29.666592 68.647834 61.378805 25.747728 77.366748 -54.026397 47.915587 -3.783898 -10.617585 -0.702260 -2.192908 -60.177983 36.737757 -1.926867 2.566465 10.923168 -12.396274 65.753753 10.580692 -57.437670 1.089360 -10.139833 0.873037 0.186224 -2.052734 3.252262 -0.461578 5.410879 -4.600252 0.027404 0.017536 -0.016524 -0.239049 -10.031606 2.314261 0.516030 -2.388130 6.194109 0.123953 5.337451 -0.586703 -0.010130 -0.041818 0.018755 
10.378429 3.659401 82.951843 -6.606880 -3.100309 -113.381297 -2.194540 -0.554981 3.163333 -0.969337 -0.259619 1.394193 -0.969337 -0.259619 1.394193 -0.726414 -0.196927 1.045233 3.323811 -16.595767 -14.696214 1.074249 4.748979 -26.066705 7.431238 5.202487 1.474388 69.330880 29.733586 68.677135 61.541855 25.735798 77.248517 -53.210066 48.280405 -3.942807 -10.623534 -0.720056 -2.188729 -60.233861 36.683863 -1.974070 2.588034 10.899432 -12.259454 65.760952 10.612307 -57.456979 1.082220 -10.128307 0.882978 0.195638 -2.134173 3.264954 -0.481087 5.439061 -4.610465 0.029877 0.017863 -0.016139 -0.238152 -10.030356 2.305143 0.506864 -2.458464 6.224767 0.128802 5.375384 -0.596289 -0.009500 -0.041381 0.018649 
10.372394 3.664485 82.950409 -6.637697 -3.111528 -113.375150 -2.194109 -0.564390 3.172324 -0.969110 -0.263752 1.397530 -0.969109 -0.263753 1.397527 -0.726232 -0.200033 1.047729 3.306560 -16.586544 -14.672879 1.048576 4.765546 -26.030512 7.441561 5.165751 1.479059 69.432513 29.798449 68.660736 61.547046 25.637335 77.135136 -52.358666 48.433309 -4.065452 -10.637646 -0.724092 -2.203734 -60.274808 36.630182 -2.014291 2.629939 10.876345 -12.100932 65.780486 10.699093 -57.476739 1.071575 -10.116114 0.904959 0.214965 -2.216674 3.258283 -0.505636 5.468830 -4.637205 0.032498 0.018652 -0.017180 -0.235525 -10.027895 2.294861 0.497951 -2.521896 6.232382 0.136407 5.409544 -0.612667 -0.009409 -0.042935 0.018858 
